<svg 
 xmlns="http://www.w3.org/2000/svg"
 xmlns:xlink="http://www.w3.org/1999/xlink"
 width="0.952cm" height="0.741cm">
<path fill-rule="evenodd"  fill="rgb(0, 0, 0)"
 d="M21.522,10.920 C21.763,10.920 21.957,11.108 21.957,11.340 C21.957,11.572 21.763,11.760 21.522,11.760 L12.446,11.760 C12.205,11.760 12.010,11.572 12.010,11.340 C12.010,11.108 12.205,10.920 12.446,10.920 L21.522,10.920 ZM11.103,8.820 C11.103,8.588 11.297,8.400 11.538,8.400 L22.429,8.400 C22.670,8.400 22.865,8.588 22.865,8.820 C22.865,9.052 22.670,9.240 22.429,9.240 L11.538,9.240 C11.297,9.240 11.103,9.052 11.103,8.820 ZM26.952,6.464 L24.530,14.024 C24.320,14.680 23.705,15.120 22.999,15.120 L9.000,15.120 C8.237,15.120 7.580,14.616 7.402,13.894 L4.206,0.906 C4.197,0.868 4.163,0.840 4.124,0.840 L0.435,0.840 C0.195,0.840 0.000,0.652 0.000,0.420 C0.000,0.188 0.195,0.000 0.435,0.000 L4.124,0.000 C4.569,0.000 4.951,0.293 5.054,0.713 L8.249,13.700 C8.334,14.041 8.642,14.280 9.000,14.280 L22.999,14.280 C23.320,14.280 23.601,14.078 23.698,13.776 L26.120,6.216 C26.138,6.160 26.128,6.099 26.093,6.053 C26.058,6.007 26.006,5.981 25.949,5.981 L9.804,5.981 C9.563,5.981 9.369,5.793 9.369,5.561 C9.369,5.329 9.563,5.141 9.804,5.141 L25.949,5.141 C26.283,5.141 26.600,5.297 26.797,5.558 C26.993,5.818 27.051,6.156 26.952,6.464 ZM12.629,16.800 C13.829,16.800 14.806,17.742 14.806,18.900 C14.806,20.058 13.829,21.000 12.629,21.000 C11.428,21.000 10.451,20.058 10.451,18.900 C10.451,17.742 11.428,16.800 12.629,16.800 ZM12.629,20.160 C13.349,20.160 13.935,19.595 13.935,18.900 C13.935,18.205 13.349,17.640 12.629,17.640 C11.909,17.640 11.322,18.205 11.322,18.900 C11.322,19.595 11.909,20.160 12.629,20.160 ZM19.597,16.800 C20.797,16.800 21.774,17.742 21.774,18.900 C21.774,20.058 20.797,21.000 19.597,21.000 C18.396,21.000 17.419,20.058 17.419,18.900 C17.419,17.742 18.396,16.800 19.597,16.800 ZM19.597,20.160 C20.317,20.160 20.903,19.595 20.903,18.900 C20.903,18.205 20.317,17.640 19.597,17.640 C18.876,17.640 18.290,18.205 18.290,18.900 C18.290,19.595 18.876,20.160 19.597,20.160 Z"/>
</svg>