<svg 
 xmlns="http://www.w3.org/2000/svg"
 xmlns:xlink="http://www.w3.org/1999/xlink"
 width="0.6cm" height="0.529cm">
<path fill-rule="evenodd"  fill="rgb(0, 0, 0)"
 d="M16.974,4.471 C16.726,1.879 14.792,-0.002 12.372,-0.002 C10.760,-0.002 9.283,0.821 8.452,2.141 C7.629,0.804 6.213,-0.003 4.627,-0.003 C2.207,-0.003 0.273,1.879 0.025,4.471 C0.005,4.586 -0.075,5.189 0.169,6.171 C0.522,7.589 1.336,8.879 2.524,9.900 L8.449,15.002 L14.475,9.900 C15.663,8.879 16.477,7.589 16.830,6.171 C17.074,5.189 16.994,4.586 16.974,4.471 ZM16.193,6.029 C15.871,7.324 15.125,8.504 14.037,9.438 L8.452,14.167 L2.963,9.440 C1.874,8.503 1.128,7.324 0.806,6.029 C0.575,5.099 0.670,4.573 0.670,4.570 L0.675,4.539 C0.888,2.267 2.549,0.618 4.627,0.618 C6.160,0.618 7.509,1.512 8.150,2.950 L8.451,3.628 L8.752,2.950 C9.382,1.534 10.803,0.618 12.372,0.618 C14.450,0.618 16.112,2.267 16.329,4.568 C16.329,4.573 16.424,5.099 16.193,6.029 Z"/>
</svg>