<svg 
 xmlns="http://www.w3.org/2000/svg"
 xmlns:xlink="http://www.w3.org/1999/xlink"
 width="0.6cm" height="0.564cm">
<path fill-rule="evenodd"  fill="rgb(0, 0, 0)"
 d="M15.931,15.488 L11.264,10.820 C12.454,9.672 13.192,8.089 13.192,6.344 C13.192,2.846 10.233,0.000 6.596,0.000 C2.958,0.000 -0.001,2.846 -0.001,6.344 C-0.001,9.842 2.958,12.687 6.596,12.687 C8.192,12.687 9.657,12.138 10.799,11.228 L15.478,15.907 C15.540,15.969 15.622,16.000 15.704,16.000 C15.783,16.000 15.861,15.972 15.922,15.915 C16.047,15.800 16.051,15.609 15.931,15.488 ZM6.596,12.083 C3.305,12.083 0.628,9.508 0.628,6.344 C0.628,3.179 3.305,0.605 6.596,0.605 C9.886,0.605 12.563,3.179 12.563,6.344 C12.563,9.508 9.886,12.083 6.596,12.083 Z"/>
</svg>