<svg 
 xmlns="http://www.w3.org/2000/svg"
 xmlns:xlink="http://www.w3.org/1999/xlink"
 width="0.776cm" height="0.776cm">
<path fill-rule="evenodd"  fill="rgb(0, 0, 0)"
 d="M18.780,3.217 C14.491,-1.073 7.510,-1.073 3.221,3.217 C1.716,4.723 0.686,6.614 0.243,8.687 C-0.188,10.705 -0.047,12.797 0.652,14.734 C0.735,14.967 0.992,15.088 1.225,15.004 C1.457,14.920 1.578,14.663 1.494,14.430 C0.853,12.650 0.723,10.729 1.119,8.874 C1.526,6.971 2.471,5.234 3.854,3.851 C7.795,-0.091 14.206,-0.091 18.147,3.851 C20.024,5.728 21.074,8.223 21.105,10.877 C21.136,13.526 20.149,16.041 18.326,17.959 C18.305,17.982 18.283,18.005 18.262,18.028 C18.224,18.068 18.186,18.108 18.147,18.148 C14.206,22.089 7.795,22.089 3.854,18.148 C3.833,18.126 3.813,18.105 3.792,18.084 C3.791,18.042 3.790,18.002 3.790,17.962 C3.790,17.871 3.792,17.782 3.795,17.692 C3.797,17.662 3.799,17.632 3.800,17.603 C3.803,17.543 3.806,17.484 3.810,17.425 C3.813,17.389 3.817,17.354 3.820,17.319 C3.825,17.266 3.829,17.212 3.835,17.159 C3.839,17.122 3.844,17.085 3.849,17.047 C3.855,16.997 3.861,16.946 3.869,16.896 C3.874,16.858 3.881,16.820 3.887,16.782 C3.895,16.733 3.903,16.684 3.912,16.636 C3.919,16.597 3.927,16.559 3.935,16.521 C3.945,16.473 3.954,16.426 3.965,16.378 C3.973,16.340 3.983,16.301 3.992,16.263 C4.003,16.217 4.015,16.170 4.027,16.124 C4.037,16.085 4.048,16.047 4.058,16.009 C4.071,15.963 4.084,15.917 4.097,15.872 C4.109,15.834 4.121,15.797 4.133,15.759 C4.147,15.714 4.162,15.669 4.177,15.624 C4.190,15.587 4.203,15.549 4.217,15.512 C4.232,15.468 4.248,15.424 4.265,15.380 C4.279,15.343 4.294,15.306 4.309,15.269 C4.326,15.226 4.344,15.182 4.362,15.139 C4.377,15.103 4.393,15.067 4.410,15.030 C4.428,14.988 4.448,14.945 4.467,14.903 C4.484,14.867 4.501,14.831 4.519,14.796 C4.539,14.754 4.560,14.712 4.581,14.671 C4.599,14.636 4.617,14.601 4.636,14.566 C4.658,14.525 4.680,14.484 4.703,14.443 C4.722,14.409 4.741,14.374 4.761,14.340 C4.785,14.300 4.808,14.260 4.833,14.220 C4.853,14.186 4.874,14.153 4.894,14.119 C4.919,14.080 4.945,14.041 4.970,14.002 C4.992,13.969 5.014,13.936 5.035,13.904 C5.062,13.865 5.089,13.826 5.116,13.788 C5.139,13.756 5.161,13.724 5.184,13.693 C5.212,13.655 5.241,13.618 5.269,13.580 C5.293,13.550 5.316,13.518 5.341,13.488 C5.370,13.451 5.400,13.414 5.430,13.378 C5.455,13.348 5.479,13.318 5.504,13.288 C5.535,13.252 5.567,13.216 5.598,13.181 C5.624,13.152 5.649,13.123 5.675,13.095 C5.708,13.059 5.741,13.025 5.774,12.990 C5.800,12.962 5.826,12.934 5.853,12.907 C5.887,12.872 5.922,12.839 5.957,12.805 C5.984,12.778 6.011,12.752 6.038,12.726 C6.074,12.692 6.111,12.659 6.147,12.626 C6.175,12.601 6.202,12.575 6.230,12.550 C6.268,12.517 6.306,12.485 6.344,12.453 C6.372,12.429 6.400,12.405 6.429,12.382 C6.468,12.349 6.509,12.318 6.549,12.286 C6.578,12.264 6.605,12.242 6.634,12.220 C6.676,12.188 6.720,12.157 6.763,12.125 C6.791,12.105 6.818,12.085 6.845,12.066 C6.893,12.032 6.942,11.999 6.991,11.967 C7.015,11.951 7.039,11.934 7.063,11.918 C7.127,11.877 7.192,11.837 7.257,11.797 C7.267,11.791 7.277,11.785 7.287,11.778 C7.363,11.733 7.439,11.689 7.517,11.646 C7.543,11.632 7.571,11.618 7.597,11.604 C7.649,11.577 7.700,11.549 7.752,11.523 C7.786,11.506 7.820,11.490 7.854,11.474 C7.897,11.453 7.939,11.432 7.983,11.412 C8.794,12.187 9.877,12.627 11.001,12.627 C12.124,12.627 13.207,12.187 14.019,11.412 C15.603,12.145 16.900,13.461 17.604,15.062 C17.703,15.288 17.968,15.391 18.194,15.292 C18.420,15.192 18.523,14.927 18.424,14.701 C17.654,12.951 16.313,11.552 14.616,10.707 C15.108,9.985 15.375,9.132 15.375,8.252 C15.375,5.839 13.413,3.876 11.001,3.876 C10.753,3.876 10.553,4.077 10.553,4.324 C10.553,4.572 10.753,4.772 11.001,4.772 C12.919,4.772 14.479,6.333 14.479,8.252 C14.479,9.109 14.160,9.936 13.582,10.577 C13.582,10.577 13.582,10.577 13.581,10.577 C12.921,11.311 11.980,11.731 11.001,11.731 C10.021,11.731 9.080,11.311 8.420,10.577 C8.420,10.577 8.419,10.577 8.419,10.577 C7.841,9.935 7.522,9.109 7.522,8.252 C7.522,7.315 7.888,6.437 8.554,5.778 C8.730,5.604 8.731,5.321 8.557,5.145 C8.384,4.969 8.100,4.967 7.924,5.141 C7.087,5.969 6.626,7.074 6.626,8.251 C6.626,9.131 6.892,9.983 7.384,10.705 C7.379,10.707 7.375,10.710 7.371,10.712 C7.336,10.729 7.302,10.748 7.267,10.766 C7.214,10.793 7.161,10.820 7.108,10.849 C7.071,10.869 7.035,10.890 6.998,10.911 C6.950,10.939 6.901,10.966 6.852,10.995 C6.815,11.017 6.778,11.040 6.741,11.063 C6.695,11.092 6.649,11.120 6.603,11.149 C6.566,11.173 6.529,11.198 6.493,11.222 C6.448,11.252 6.404,11.281 6.360,11.312 C6.324,11.337 6.288,11.363 6.251,11.389 C6.209,11.420 6.166,11.451 6.125,11.482 C6.089,11.509 6.053,11.536 6.018,11.564 C5.977,11.596 5.936,11.628 5.896,11.661 C5.861,11.689 5.826,11.717 5.792,11.746 C5.752,11.779 5.713,11.813 5.674,11.847 C5.640,11.876 5.607,11.906 5.573,11.935 C5.535,11.970 5.497,12.005 5.459,12.040 C5.427,12.071 5.394,12.101 5.362,12.132 C5.325,12.168 5.288,12.205 5.252,12.241 C5.220,12.273 5.189,12.304 5.159,12.336 C5.122,12.373 5.087,12.411 5.051,12.449 C5.022,12.482 4.992,12.513 4.963,12.546 C4.927,12.585 4.893,12.626 4.858,12.665 C4.831,12.698 4.802,12.730 4.775,12.762 C4.740,12.804 4.706,12.847 4.672,12.890 C4.646,12.922 4.620,12.953 4.595,12.985 C4.559,13.032 4.524,13.079 4.490,13.126 C4.468,13.155 4.445,13.184 4.424,13.214 C4.379,13.275 4.337,13.337 4.294,13.400 C4.283,13.416 4.271,13.432 4.260,13.449 C4.207,13.528 4.156,13.607 4.106,13.688 C4.089,13.716 4.073,13.744 4.056,13.772 C4.024,13.826 3.991,13.879 3.960,13.934 C3.941,13.968 3.922,14.002 3.904,14.037 C3.876,14.086 3.849,14.135 3.823,14.185 C3.803,14.222 3.785,14.259 3.766,14.297 C3.742,14.345 3.717,14.393 3.694,14.441 C3.675,14.480 3.658,14.519 3.640,14.558 C3.618,14.606 3.595,14.654 3.574,14.703 C3.557,14.742 3.540,14.782 3.523,14.823 C3.503,14.871 3.483,14.919 3.464,14.968 C3.448,15.009 3.432,15.050 3.416,15.091 C3.398,15.140 3.380,15.189 3.363,15.238 C3.348,15.280 3.333,15.322 3.319,15.364 C3.303,15.413 3.286,15.463 3.271,15.513 C3.257,15.555 3.244,15.598 3.232,15.640 C3.217,15.690 3.202,15.740 3.189,15.791 C3.177,15.834 3.165,15.876 3.154,15.920 C3.141,15.971 3.128,16.022 3.116,16.074 C3.106,16.116 3.096,16.160 3.086,16.203 C3.075,16.255 3.064,16.307 3.054,16.360 C3.045,16.403 3.036,16.446 3.028,16.489 C3.019,16.543 3.010,16.596 3.001,16.651 C2.994,16.693 2.987,16.736 2.981,16.778 C2.973,16.834 2.966,16.890 2.959,16.946 C2.954,16.987 2.948,17.029 2.943,17.070 C2.937,17.129 2.932,17.188 2.927,17.247 C2.923,17.287 2.919,17.326 2.916,17.365 C2.912,17.432 2.909,17.498 2.905,17.564 C2.904,17.597 2.901,17.629 2.900,17.662 C2.897,17.762 2.895,17.861 2.895,17.962 C2.895,18.070 2.898,18.172 2.903,18.285 C2.904,18.311 2.907,18.337 2.912,18.361 C2.913,18.364 2.913,18.366 2.914,18.368 C2.919,18.392 2.927,18.415 2.936,18.438 C2.937,18.440 2.938,18.442 2.939,18.445 C2.949,18.467 2.960,18.488 2.973,18.509 C2.975,18.511 2.976,18.514 2.978,18.516 C2.991,18.536 3.006,18.555 3.022,18.572 C3.023,18.574 3.024,18.575 3.026,18.576 L3.085,18.639 C3.129,18.687 3.174,18.735 3.220,18.781 C5.365,20.927 8.183,21.999 11.000,21.999 C13.818,21.999 16.635,20.927 18.780,18.781 C18.827,18.735 18.871,18.687 18.916,18.639 L18.975,18.576 C20.959,16.488 22.034,13.751 22.000,10.867 C21.967,7.978 20.823,5.261 18.780,3.217 Z"/>
</svg>